<svg width="24.000000" height="24.000000" viewBox="0 0 24 24" fill="none" xmlns="http://www.w3.org/2000/svg" xmlns:xlink="http://www.w3.org/1999/xlink">
	<desc>
			Created with Pixso.
	</desc>
	<defs/>
	<rect id="Icons / basic / circle-x" rx="-0.500000" width="23.000000" height="23.000000" transform="translate(0.500000 0.500000)" fill="#FFFFFF" fill-opacity="0"/>
	<path id="icon" d="M1 12C1 18.0751 5.92493 23 12 23C18.0751 23 23 18.0751 23 12C23 5.92487 18.0751 1 12 1C5.92493 1 1 5.92487 1 12ZM21 12C21 16.9706 16.9706 21 12 21C7.02942 21 3 16.9706 3 12C3 7.02943 7.02942 3 12 3C16.9706 3 21 7.02943 21 12ZM8.70715 16.7071L12 13.4142L15.2928 16.7071L16.7072 15.2929L13.4142 12L16.7072 8.70711L15.2928 7.29289L12 10.5858L8.70715 7.29289L7.29285 8.70711L10.5858 12L7.29285 15.2929L8.70715 16.7071Z" clip-rule="evenodd" fill="#000000" fill-opacity="1.000000" fill-rule="evenodd"/>
</svg>
