<svg width="54.083313" height="54.083328" viewBox="0 0 54.0833 54.0833" fill="none" xmlns="http://www.w3.org/2000/svg" xmlns:xlink="http://www.w3.org/1999/xlink">
	<desc>
			Created with Pixso.
	</desc>
	<defs/>
	<path id="Vector" d="M46.16 7.92C41.05 2.81 34.26 0 27.04 0C19.81 0 13.02 2.81 7.92 7.92C2.81 13.02 0 19.81 0 27.04C0 34.26 2.81 41.05 7.92 46.16C13.02 51.27 19.81 54.08 27.04 54.08C34.26 54.08 41.05 51.27 46.16 46.16C51.27 41.05 54.08 34.26 54.08 27.04C54.08 19.81 51.27 13.02 46.16 7.92ZM11.73 45.34C12.62 37.66 19.23 31.73 27.04 31.73C31.15 31.73 35.02 33.33 37.93 36.24C40.39 38.7 41.94 41.91 42.34 45.34C38.2 48.81 32.86 50.91 27.04 50.91C21.22 50.91 15.88 48.82 11.73 45.34ZM27.04 28.46C22.51 28.46 18.82 24.78 18.82 20.25C18.82 15.72 22.51 12.04 27.04 12.04C31.57 12.04 35.25 15.72 35.25 20.25C35.25 24.78 31.57 28.46 27.04 28.46L27.04 28.46ZM45.07 42.66C44.26 39.38 42.56 36.39 40.17 34C38.23 32.05 35.92 30.59 33.41 29.68C36.43 27.63 38.42 24.17 38.42 20.25C38.42 13.97 33.31 8.87 27.04 8.87C20.76 8.87 15.65 13.97 15.65 20.25C15.65 24.17 17.65 27.63 20.67 29.68C18.36 30.52 16.22 31.82 14.38 33.54C11.71 36.02 9.86 39.19 9 42.66C5.37 38.47 3.16 33.01 3.16 27.04C3.16 13.87 13.87 3.16 27.04 3.16C40.2 3.16 50.91 13.87 50.91 27.04C50.91 33.01 48.71 38.47 45.07 42.66Z" fill="#000000" fill-opacity="1.000000" fill-rule="nonzero"/>
</svg>
